<?xml version="1.0" standalone="no"?>
<!DOCTYPE svg PUBLIC "-//W3C//DTD SVG 20010904//EN"
 "http://www.w3.org/TR/2001/REC-SVG-20010904/DTD/svg10.dtd">
<svg version="1.0" xmlns="http://www.w3.org/2000/svg"
 width="969.000000pt" height="969.000000pt" viewBox="0 0 969.000000 969.000000"
 preserveAspectRatio="xMidYMid meet">
<metadata>
Created by potrace 1.15, written by Peter Selinger 2001-2017
</metadata>
<g transform="translate(0.000000,969.000000) scale(0.100000,-0.100000)"
fill="#000000" stroke="none">
<path d="M0 9257 l0 -432 498 -497 c443 -443 495 -499 480 -510 -10 -7 -18
-18 -18 -25 0 -6 -6 -16 -14 -20 -7 -4 -19 -19 -26 -32 -7 -14 -17 -30 -22
-35 -40 -49 -48 -60 -48 -66 0 -6 -15 -26 -52 -70 -7 -8 -12 -18 -10 -23 1 -4
-5 -10 -13 -13 -8 -4 -15 -15 -15 -25 0 -10 -4 -19 -10 -19 -5 0 -10 -5 -10
-11 0 -6 -11 -25 -25 -43 -14 -18 -25 -38 -25 -43 0 -6 -7 -14 -16 -17 -8 -3
-13 -10 -9 -15 3 -5 1 -12 -4 -15 -5 -3 -18 -24 -29 -45 -30 -56 -46 -85 -52
-91 -3 -3 -14 -24 -24 -47 -11 -24 -23 -43 -28 -43 -4 0 -8 -8 -8 -19 0 -10
-7 -24 -15 -31 -8 -7 -12 -17 -9 -22 4 -6 2 -13 -3 -17 -12 -7 -73 -133 -73
-149 0 -7 -4 -12 -10 -12 -5 0 -10 -11 -10 -24 0 -13 -4 -26 -8 -28 -12 -5
-91 -202 -145 -363 -11 -33 -24 -69 -29 -80 -5 -12 -10 -27 -12 -35 -1 -8 -7
-31 -13 -50 -6 -19 -16 -55 -23 -80 -6 -25 -18 -67 -25 -95 -29 -105 -58 -233
-61 -265 -1 -14 -7 -45 -13 -70 -6 -25 -15 -76 -20 -115 -6 -38 -14 -97 -20
-130 -7 -46 -6 -62 3 -70 8 -6 230 -10 622 -9 l609 0 7 40 c5 21 12 66 17 99
5 33 14 75 20 94 6 19 8 37 6 41 -3 4 1 27 9 51 29 88 36 116 36 133 0 10 6
30 14 44 17 33 36 93 36 113 0 8 6 21 13 28 6 6 12 15 12 19 0 12 46 124 71
175 13 27 24 57 24 68 0 10 4 19 9 19 5 0 12 11 15 25 4 14 11 25 16 25 6 0
10 9 10 19 0 11 5 23 10 26 6 3 10 15 10 26 0 10 4 19 9 19 5 0 17 20 28 45
10 25 21 45 25 45 4 0 15 17 25 38 15 33 80 139 93 152 3 3 14 21 24 40 11 19
24 38 30 42 6 4 11 12 11 18 0 6 5 14 11 18 6 4 13 13 15 20 2 7 56 -40 123
-107 l119 -119 -22 -154 c-43 -308 -43 -326 -48 -1433 -5 -1271 5 -1579 66
-1979 l18 -120 -132 -132 c-98 -98 -136 -129 -144 -121 -6 6 -11 15 -11 20 0
4 -11 23 -25 41 -14 18 -25 36 -25 39 0 4 -15 28 -32 54 -45 65 -52 77 -96
163 -21 41 -44 84 -50 95 -107 190 -281 706 -321 953 -5 32 -14 76 -20 98
l-10 39 -611 0 c-373 -1 -614 -5 -619 -10 -6 -6 -6 -34 0 -70 5 -33 14 -91 20
-130 9 -61 15 -92 34 -180 12 -59 35 -157 48 -210 9 -33 24 -94 35 -135 41
-160 165 -498 248 -680 70 -151 227 -454 248 -480 7 -8 26 -37 42 -65 44 -77
45 -78 109 -170 33 -47 65 -94 70 -103 6 -10 26 -38 45 -62 73 -93 121 -29
-435 -586 l-495 -495 0 -449 0 -450 424 0 423 0 510 510 c437 437 512 508 523
495 7 -9 15 -13 18 -11 2 3 29 -15 58 -41 30 -25 54 -42 54 -39 0 4 20 -9 44
-28 23 -20 46 -36 50 -36 4 0 34 -21 67 -46 32 -25 59 -42 59 -39 0 3 16 -6
35 -21 19 -14 35 -23 35 -20 0 4 25 -12 55 -34 30 -22 55 -38 55 -35 0 4 13
-3 30 -15 16 -12 30 -19 30 -15 0 3 16 -6 35 -21 19 -14 35 -23 35 -20 0 4 19
-6 42 -22 24 -16 46 -30 50 -31 23 -5 87 -36 111 -53 15 -11 27 -16 27 -13 0
4 11 0 25 -9 14 -9 25 -14 25 -11 0 3 18 -6 40 -20 22 -14 40 -22 40 -19 0 3
11 -1 25 -10 14 -9 25 -14 25 -10 0 3 11 -1 25 -10 14 -9 25 -14 25 -11 0 3
13 -1 30 -10 16 -8 32 -15 35 -16 3 0 26 -9 52 -20 46 -20 55 -23 104 -34 12
-2 27 -9 35 -16 8 -6 14 -8 14 -5 0 4 9 2 21 -4 11 -6 29 -13 40 -16 10 -2 28
-6 38 -8 11 -3 28 -9 38 -14 10 -6 23 -11 28 -11 6 -1 28 -7 50 -13 61 -17 85
-24 125 -32 11 -3 25 -8 32 -12 6 -4 26 -8 44 -9 18 -2 37 -6 43 -9 12 -8 42
-15 86 -21 34 -5 68 -11 105 -20 14 -3 41 -8 60 -11 19 -3 49 -8 65 -11 17 -3
44 -6 60 -8 17 -2 54 -7 83 -11 l52 -6 0 626 c0 344 -3 626 -7 627 -5 0 -17 3
-28 5 -11 3 -33 6 -50 8 -49 6 -109 17 -130 23 -11 4 -31 8 -45 9 -14 1 -36 5
-50 9 -14 4 -32 8 -40 9 -8 2 -35 9 -60 16 -57 17 -60 18 -89 24 -12 3 -29 10
-37 17 -8 6 -14 8 -14 5 0 -4 -9 -2 -21 4 -11 6 -30 14 -42 16 -12 3 -26 6
-32 8 -5 1 -25 10 -42 19 -18 10 -33 15 -33 12 0 -3 -11 2 -25 11 -14 9 -25
13 -25 9 0 -3 -16 3 -35 15 -19 12 -35 19 -35 15 0 -3 -14 3 -30 15 -17 12
-30 18 -30 15 0 -4 -11 0 -25 9 -14 9 -25 14 -25 11 0 -4 -14 3 -30 15 -17 12
-37 23 -44 24 -7 1 -26 10 -42 21 -16 11 -31 20 -34 20 -3 0 -23 11 -45 24
-22 13 -40 22 -41 20 0 -2 -17 9 -37 24 -20 15 -37 25 -37 22 0 -4 -15 4 -32
17 -18 13 -35 23 -38 23 -3 0 -19 10 -35 22 -21 15 2 9 81 -23 264 -105 658
-178 1169 -216 218 -16 1027 -16 1280 0 725 46 1202 151 1456 319 43 28 68 24
41 -7 -9 -11 -22 -20 -30 -20 -7 0 -15 -6 -18 -14 -3 -8 -16 -17 -30 -20 -13
-4 -24 -11 -24 -16 0 -6 -11 -15 -25 -20 -14 -5 -25 -14 -25 -20 0 -5 -6 -10
-13 -10 -7 0 -22 -7 -32 -15 -45 -34 -103 -69 -145 -87 -24 -11 -47 -23 -50
-28 -8 -14 -441 -191 -451 -184 -5 3 -9 0 -9 -6 0 -6 -4 -8 -10 -5 -5 3 -10 1
-10 -5 0 -6 -4 -9 -10 -5 -5 3 -26 -1 -47 -10 -20 -9 -43 -13 -50 -11 -7 3
-13 0 -13 -6 0 -6 -3 -8 -6 -5 -4 3 -15 2 -26 -4 -10 -5 -32 -12 -48 -14 -16
-2 -45 -8 -65 -14 -19 -6 -51 -16 -71 -22 -19 -6 -38 -8 -41 -5 -3 3 -14 1
-24 -5 -10 -5 -33 -12 -51 -15 -18 -3 -46 -7 -63 -10 -16 -3 -41 -6 -55 -7
l-25 -2 0 -625 0 -625 50 1 c28 1 68 5 90 9 22 3 54 9 70 11 17 3 41 7 55 10
36 7 71 13 102 18 14 2 36 7 48 11 12 4 32 8 43 10 12 2 37 8 55 13 17 6 32 9
32 6 0 -3 9 0 19 6 11 5 36 12 55 14 20 3 45 10 58 17 12 6 33 13 47 14 14 2
45 10 68 18 22 9 44 13 47 10 3 -4 6 -1 6 6 0 7 4 10 9 7 5 -3 37 6 72 20 35
15 75 28 89 30 44 8 445 176 458 193 7 9 15 15 17 14 3 -2 29 8 59 21 30 13
63 27 75 31 12 3 21 11 21 16 0 6 4 8 9 5 5 -4 11 -3 13 2 4 10 100 57 111 54
4 -1 7 3 7 9 0 5 16 17 36 25 21 9 43 22 51 30 8 8 25 17 39 20 13 3 24 10 24
16 0 5 4 7 9 4 5 -3 11 1 15 9 3 8 10 15 15 15 9 0 65 34 96 57 6 5 30 22 55
38 25 17 46 33 48 37 2 4 9 5 16 2 8 -3 16 2 19 10 4 9 13 16 21 16 7 0 16 7
20 15 3 8 12 15 20 15 8 0 19 6 23 13 4 7 24 25 43 40 l36 26 509 -509 510
-510 432 0 433 0 0 437 0 438 -508 509 c-287 288 -502 510 -494 513 6 3 12 11
12 18 0 7 11 23 25 36 13 13 25 28 25 32 0 4 5 13 10 20 45 53 60 73 60 80 0
5 6 14 13 21 6 8 18 22 24 32 7 11 32 48 55 84 59 90 65 100 89 145 12 22 24
42 28 45 3 3 13 19 21 35 8 17 19 35 24 40 4 6 22 38 40 72 150 300 159 318
211 448 15 39 33 84 40 100 41 95 106 285 111 322 1 12 5 27 9 34 13 20 59
197 83 322 5 23 14 62 21 86 7 23 10 45 7 48 -2 3 -1 16 4 29 5 13 14 59 20
101 6 43 15 107 20 143 5 40 5 69 -1 74 -5 6 -250 10 -619 10 l-611 1 -8 -35
c-10 -41 -32 -174 -35 -210 -2 -14 -8 -41 -14 -60 -6 -19 -18 -62 -26 -95 -15
-63 -26 -95 -60 -185 -12 -30 -21 -60 -21 -65 0 -13 -97 -248 -104 -255 -3 -3
-19 -34 -36 -70 -16 -36 -35 -72 -42 -81 -7 -8 -13 -23 -13 -32 0 -9 -3 -17
-8 -17 -4 0 -14 -15 -21 -33 -8 -17 -21 -38 -28 -45 -7 -7 -13 -19 -13 -26 0
-8 -7 -19 -15 -26 -8 -7 -12 -16 -9 -21 3 -5 1 -9 -5 -9 -6 0 -18 -17 -28 -37
-9 -21 -22 -43 -28 -49 -11 -12 -16 -19 -66 -96 -17 -27 -34 -48 -38 -48 -3 0
-102 96 -220 214 l-214 214 14 183 c15 197 21 1428 7 1462 -7 16 -80 17 -1395
15 l-1388 -3 0 -320 0 -320 1016 -3 1017 -2 5 -29 c3 -16 13 -106 22 -201 14
-146 15 -209 6 -418 -22 -502 -84 -828 -193 -1009 -94 -156 -296 -249 -658
-303 -233 -35 -334 -41 -735 -47 -1067 -15 -1765 88 -1984 292 -157 147 -252
434 -301 905 -34 319 -30 2512 5 2890 41 456 136 762 280 905 211 211 710 305
1625 305 849 0 1430 -67 1620 -188 104 -66 193 -198 239 -357 44 -154 62 -294
70 -565 l6 -205 370 0 370 0 3 169 2 169 214 214 214 214 41 -54 c23 -30 41
-57 41 -61 0 -4 11 -22 25 -40 14 -18 25 -36 25 -40 0 -4 12 -26 28 -49 36
-54 137 -260 197 -402 9 -22 21 -49 26 -60 11 -27 54 -153 84 -245 41 -129
103 -383 121 -495 3 -22 10 -44 14 -50 5 -6 220 -9 612 -8 331 0 608 2 615 2
14 1 10 54 -18 216 -28 164 -63 324 -95 443 -9 31 -19 71 -23 87 -23 88 -149
448 -185 530 -8 17 -22 48 -31 70 -35 80 -96 211 -110 235 -8 14 -34 63 -57
110 -22 47 -49 96 -58 110 -10 14 -27 42 -39 63 -11 20 -30 54 -42 74 -11 20
-31 51 -45 68 -13 18 -24 35 -24 39 0 4 -11 22 -25 40 -14 18 -25 36 -25 40 0
4 -16 27 -35 50 -19 24 -35 46 -35 50 0 4 -25 38 -56 77 l-56 69 506 506 506
506 0 424 0 424 -450 0 -450 0 -493 -493 -493 -493 -74 62 c-41 34 -77 60 -79
58 -2 -2 -23 12 -46 31 -23 19 -45 35 -49 35 -4 0 -22 11 -40 25 -18 14 -36
25 -40 25 -4 0 -31 18 -61 40 -30 22 -55 38 -55 35 0 -3 -16 6 -35 21 -19 14
-35 23 -35 19 0 -4 -22 10 -50 30 -27 20 -50 34 -50 30 0 -4 -16 5 -35 19 -19
15 -35 25 -35 22 0 -7 -76 31 -112 56 -16 11 -28 17 -28 14 0 -2 -29 11 -65
29 -36 19 -65 32 -65 29 0 -3 -13 4 -30 16 -16 12 -30 18 -30 15 0 -4 -16 3
-35 15 -19 12 -35 18 -35 15 0 -4 -11 0 -25 9 -14 9 -25 14 -25 10 0 -3 -11 1
-25 10 -14 9 -25 14 -25 11 0 -3 -13 1 -30 10 -16 9 -30 13 -30 10 0 -3 -11 2
-25 11 -14 9 -25 13 -25 10 0 -4 -15 1 -32 11 -18 9 -37 18 -43 19 -5 2 -20 5
-32 8 -13 3 -32 8 -42 10 -11 3 -30 10 -43 17 -13 7 -27 14 -33 15 -5 2 -21 6
-35 9 -14 4 -35 8 -48 10 -13 2 -29 9 -37 15 -8 7 -15 10 -15 7 0 -4 -32 2
-92 18 -10 3 -27 7 -38 9 -11 3 -25 8 -31 12 -6 3 -25 7 -43 9 -18 1 -38 5
-45 10 -7 4 -27 9 -44 11 -18 1 -43 5 -57 8 -14 3 -43 8 -65 12 -22 3 -48 11
-59 16 -14 8 -17 7 -11 -3 5 -8 4 -10 -4 -5 -6 4 -26 10 -44 12 -65 9 -123 15
-152 17 l-30 2 -3 -614 c-1 -418 1 -618 8 -625 6 -6 23 -12 38 -13 34 -3 64
-9 152 -28 22 -5 59 -12 110 -20 8 -1 35 -8 60 -15 57 -17 60 -18 88 -24 12
-3 27 -8 32 -11 5 -3 19 -8 30 -11 11 -2 29 -6 41 -9 12 -2 27 -9 35 -16 8 -6
14 -9 14 -5 0 4 15 -1 33 -11 17 -9 37 -18 42 -19 6 -2 20 -5 32 -8 12 -2 33
-12 47 -21 14 -10 26 -14 26 -11 0 4 11 -1 25 -10 14 -9 25 -14 25 -11 0 3 29
-10 65 -28 36 -19 65 -32 65 -29 0 3 14 -4 30 -16 17 -12 30 -19 30 -15 0 3
20 -8 45 -25 25 -17 45 -28 45 -25 0 4 13 -3 29 -14 16 -12 32 -21 36 -21 4 0
19 -9 33 -19 15 -10 32 -20 37 -21 12 -3 95 -59 95 -65 0 -2 -28 8 -61 21
-100 41 -284 90 -439 118 -323 58 -597 81 -1132 98 -754 23 -1367 -21 -1823
-132 -195 -47 -305 -85 -454 -156 -62 -30 -115 -54 -117 -54 -14 0 2 19 34 40
20 14 39 27 42 30 3 3 25 19 50 35 25 16 47 32 50 35 15 15 88 60 98 60 6 0
15 6 19 13 4 7 28 21 53 32 25 11 48 24 52 30 5 6 8 6 8 0 0 -5 4 -4 9 3 9 15
403 182 441 187 14 2 50 13 80 25 30 12 66 24 80 26 14 3 38 10 53 16 15 6 30
8 33 5 3 -3 22 2 42 10 20 8 50 17 67 20 16 2 39 6 50 8 11 2 34 6 50 9 17 2
41 8 55 13 14 5 39 9 57 9 17 -1 29 3 26 7 -3 5 3 7 13 5 18 -3 19 19 19 622
l0 625 -50 -3 c-27 -1 -66 -5 -85 -8 -19 -3 -44 -6 -55 -8 -11 -1 -29 -5 -40
-8 -11 -4 -42 -10 -70 -13 -77 -10 -88 -12 -116 -23 -15 -6 -29 -9 -31 -6 -3
2 -24 -2 -46 -10 -23 -9 -42 -13 -42 -11 0 2 -18 -2 -39 -10 -22 -7 -41 -12
-44 -9 -2 2 -21 -3 -41 -11 -20 -9 -41 -13 -46 -10 -6 4 -10 1 -10 -4 0 -6 -3
-10 -7 -9 -9 3 -98 -24 -193 -58 -36 -13 -76 -25 -90 -28 -31 -5 -415 -162
-447 -182 -13 -8 -23 -11 -23 -7 0 5 -5 1 -10 -7 -5 -8 -13 -15 -17 -16 -17
-2 -128 -57 -134 -66 -3 -5 -9 -9 -13 -9 -10 1 -101 -43 -104 -52 -2 -4 -8 -5
-13 -1 -5 3 -9 1 -9 -4 0 -5 -18 -17 -40 -27 -22 -10 -40 -22 -40 -26 0 -4
-16 -13 -35 -19 -19 -6 -35 -16 -35 -21 0 -6 -4 -7 -10 -4 -5 3 -10 2 -10 -3
0 -9 -52 -37 -58 -30 -2 1 -8 -5 -13 -14 -6 -10 -16 -18 -23 -18 -11 0 -26
-10 -73 -50 -7 -6 -13 -7 -13 -3 0 4 -4 3 -8 -2 -4 -6 -27 -24 -52 -40 -25
-16 -47 -32 -50 -35 -3 -3 -25 -19 -50 -35 -25 -16 -54 -40 -65 -52 l-20 -23
-495 495 -495 495 -437 0 -438 0 0 -433z"/>
</g>
</svg>
